<?xml version="1.0" encoding="UTF-8"?>
<!-- Generator: Adobe Illustrator 25.2.1, SVG Export Plug-In . SVG Version: 6.00 Build 0)  -->
<svg xmlns="http://www.w3.org/2000/svg" xmlns:xlink="http://www.w3.org/1999/xlink" version="1.1" id="Layer_1" x="0px" y="0px" viewBox="0 0 434.8 137.4" style="enable-background:new 0 0 434.8 137.4;" xml:space="preserve">
<style type="text/css">
	.st0{fill:url(#SVGID_1_);}
	.st1{fill:url(#SVGID_2_);}
	.st2{fill:url(#SVGID_3_);}
</style>
<g>
	<g>
		
			<linearGradient id="SVGID_1_" gradientUnits="userSpaceOnUse" x1="292.55" y1="29.2" x2="292.55" y2="112.4" gradientTransform="matrix(1 0 0 -1 0 140)">
			<stop offset="0.3987" style="stop-color:#0A05B0"></stop>
			<stop offset="1" style="stop-color:#0001AA"></stop>
		</linearGradient>
		<path class="st0" d="M152.1,41.7h42.4l-42.9,55v14.1l59.5-0.1l5.5-14.1l-43.2,0.1l43.2-55.2V27.6l-59,0.1L152.1,41.7z M286.1,41.7    l5.6-14.1h-63.6v72.5c0,4.8,1,6.1,3,8.1c2.5,2,4,2.5,8.9,2.4h46l5.3-13.9h-46.6V75.4h20.2l5.6-14.2h-25.7V41.7H286.1z M403.9,34.7    c-2-4.5-5.5-7-10.5-7h-7.5l-32.5,83.1h17l7.5-19.5H409l7.5,19.5h17L403.9,34.7z M382.3,77.2l11.5-30l11,30H382.3z M372.8,27.6H303    l-5.5,13.9h27.9v69.1h15.9V41.5h25.9L372.8,27.6z"></path>
	</g>
</g>
<linearGradient id="SVGID_2_" gradientUnits="userSpaceOnUse" x1="129.1" y1="36.65" x2="-1.4" y2="36.65" gradientTransform="matrix(1 0 0 -1 0 140)">
	<stop offset="0.3987" style="stop-color:#0A05B0"></stop>
	<stop offset="1" style="stop-color:#0068D0"></stop>
</linearGradient>
<polygon class="st1" points="57.4,106 53.7,89.1 28.7,69 -1.4,69 45.1,106.3 51.8,137.7 129.1,69 99,69 "></polygon>
<linearGradient id="SVGID_3_" gradientUnits="userSpaceOnUse" x1="784.1431" y1="-213.3045" x2="653.6431" y2="-213.3045" gradientTransform="matrix(-1 0 0 1 782.7431 247.9545)">
	<stop offset="0" style="stop-color:#00C2FF"></stop>
	<stop offset="0.5398" style="stop-color:#BC2676"></stop>
	<stop offset="0.8568" style="stop-color:#FFFB6A"></stop>
</linearGradient>
<polygon class="st2" points="70.3,32 73.9,48.9 99,69 129.1,69 82.6,31.7 75.8,0.3 -1.4,69 28.7,69 "></polygon>
</svg>
